<svg xmlns="http://www.w3.org/2000/svg" width="19.5275" height="19.5397" viewBox="0 0 19.5275 19.5397">
  <title>gear</title>
  <g id="图层_2" data-name="图层 2">
    <g id="图层_1-2" data-name="图层 1">
      <g>
        <path d="M7.2914,0a2.5836,2.5836,0,0,0,2.494,2.6674" fill="inherit" stroke="inherit" stroke-miterlimit="10"/>
        <path d="M12.28,0A2.5836,2.5836,0,0,1,9.7854,2.6674" fill="inherit" stroke="inherit" stroke-miterlimit="10"/>
      </g>
      <g>
        <path d="M0,12.0783A2.5863,2.5863,0,0,0,2.6722,9.5842" fill="inherit" stroke="inherit" stroke-miterlimit="10"/>
        <path d="M0,7.09A2.5863,2.5863,0,0,1,2.6722,9.5842" fill="inherit" stroke="inherit" stroke-miterlimit="10"/>
      </g>
      <g>
        <path d="M19.5275,7.09a2.5863,2.5863,0,0,0-2.6722,2.4941" fill="inherit" stroke="inherit" stroke-miterlimit="10"/>
        <path d="M19.5275,12.0783a2.5863,2.5863,0,0,1-2.6722-2.4941" fill="inherit" stroke="inherit" stroke-miterlimit="10"/>
      </g>
      <g>
        <path d="M12.28,19.54a2.5863,2.5863,0,0,0-2.4941-2.6722" fill="inherit" stroke="inherit" stroke-miterlimit="10"/>
        <path d="M7.2914,19.54a2.5862,2.5862,0,0,1,2.494-2.6722" fill="inherit" stroke="inherit" stroke-miterlimit="10"/>
      </g>
      <g>
        <path d="M1.1072,4.61a2.5836,2.5836,0,0,0,3.65.1226" fill="inherit" stroke="inherit" stroke-miterlimit="10"/>
        <path d="M4.6343,1.0826a2.5837,2.5837,0,0,1,.1226,3.65" fill="inherit" stroke="inherit" stroke-miterlimit="10"/>
      </g>
      <g>
        <path d="M4.492,18.3062a2.5862,2.5862,0,0,0,.126-3.6531" fill="inherit" stroke="inherit" stroke-miterlimit="10"/>
        <path d="M.9649,14.779a2.5862,2.5862,0,0,1,3.6531-.1259" fill="inherit" stroke="inherit" stroke-miterlimit="10"/>
      </g>
      <g>
        <path d="M14.7729.971a2.5862,2.5862,0,0,0-.1259,3.6531" fill="inherit" stroke="inherit" stroke-miterlimit="10"/>
        <path d="M18.3,4.4981a2.5863,2.5863,0,0,1-3.6531.126" fill="inherit" stroke="inherit" stroke-miterlimit="10"/>
      </g>
      <g>
        <path d="M18.451,14.8993a2.5863,2.5863,0,0,0-3.6531-.126" fill="inherit" stroke="inherit" stroke-miterlimit="10"/>
        <path d="M14.9238,18.4264a2.5862,2.5862,0,0,1-.1259-3.6531" fill="inherit" stroke="inherit" stroke-miterlimit="10"/>
      </g>
      <line x1="6.9111" y1="0.5617" x2="5.2799" y2="1.23" fill="inherit" stroke="inherit" stroke-miterlimit="10"/>
      <line x1="12.6454" y1="0.5665" x2="14.1305" y2="1.103" fill="inherit" stroke="inherit" stroke-miterlimit="10"/>
      <line x1="18.1785" y1="5.2109" x2="18.9871" y2="6.7695" fill="inherit" stroke="inherit" stroke-miterlimit="10"/>
      <line x1="1.2295" y1="5.2804" x2="0.5588" y2="6.7559" fill="inherit" stroke="inherit" stroke-miterlimit="10"/>
      <line x1="0.5753" y1="12.4709" x2="1.1247" y2="14.153" fill="inherit" stroke="inherit" stroke-miterlimit="10"/>
      <line x1="18.9785" y1="12.4566" x2="18.281" y2="14.28" fill="inherit" stroke="inherit" stroke-miterlimit="10"/>
      <line x1="12.655" y1="18.9622" x2="14.2799" y2="18.2879" fill="inherit" stroke="inherit" stroke-miterlimit="10"/>
      <line x1="5.1626" y1="18.1622" x2="6.9351" y2="19.0053" fill="inherit" stroke="inherit" stroke-miterlimit="10"/>
      <circle cx="9.9208" cy="9.5997" r="3.5" fill="inherit" stroke="inherit" stroke-miterlimit="10"/>
    </g>
  </g>
</svg>
