<?xml version="1.0" encoding="UTF-8" standalone="no"?><!DOCTYPE svg PUBLIC "-//W3C//DTD SVG 1.1//EN" "http://www.w3.org/Graphics/SVG/1.1/DTD/svg11.dtd"><svg width="100%" height="100%" viewBox="0 0 100 100" version="1.1" xmlns="http://www.w3.org/2000/svg" xmlns:xlink="http://www.w3.org/1999/xlink" xml:space="preserve" xmlns:serif="http://www.serif.com/" style="fill-rule:evenodd;clip-rule:evenodd;stroke-linecap:round;stroke-linejoin:round;stroke-miterlimit:1.5;"><g id="selectAll"></g><g id="garbageCan"></g><g id="attribute"></g><g id="playAdd"></g><g id="checked"></g><g id="check"></g><g id="fullScreen"></g><g id="loop"></g><g id="loopSingle"></g><g id="more"></g><g id="random"></g><g id="play"></g><g id="playNext"></g><g id="playPrevious"><path d="M27.584,50l64.083,39.324l-0,-78.648l-64.083,39.324Z" style="fill:none;stroke:#40a0e1;stroke-width:4.17px;"/><path id="minimize" d="M8.333,95.308l0,-90.616" style="fill:none;stroke:#40a0e1;stroke-width:4.17px;"/></g><g id="search"></g><g id="playing"></g><g id="clock"></g><g id="back"></g><g id="close"></g><g id="menu"></g><g id="playList"></g><g id="musicNote"></g><path id="settings" d="M-65.095,-102.465c-7.115,1.09 -13.861,3.885 -19.662,8.145c2.477,3.373 4.262,7.08 5.354,11.121c-1.367,1.159 -2.637,2.429 -3.796,3.796c-4.041,-1.092 -7.748,-2.877 -11.121,-5.354c-4.26,5.801 -7.055,12.547 -8.145,19.662c4.138,0.634 8.021,1.993 11.651,4.077c-0.148,1.787 -0.148,3.583 -0,5.369c-3.63,2.085 -7.513,3.444 -11.651,4.078c1.09,7.114 3.885,13.86 8.145,19.662c3.373,-2.477 7.08,-4.262 11.121,-5.355c1.159,1.368 2.429,2.638 3.796,3.797c-1.092,4.04 -2.877,7.747 -5.354,11.121c5.801,4.26 12.547,7.054 19.662,8.144c0.634,-4.137 1.993,-8.021 4.077,-11.65c1.787,0.147 3.583,0.147 5.369,-0c2.085,3.629 3.444,7.513 4.078,11.65c7.114,-1.09 13.86,-3.884 19.662,-8.144c-2.477,-3.374 -4.262,-7.081 -5.355,-11.121c1.368,-1.159 2.638,-2.429 3.797,-3.797c4.04,1.093 7.747,2.878 11.121,5.355c4.26,-5.802 7.054,-12.548 8.144,-19.662c-4.137,-0.634 -8.021,-1.993 -11.65,-4.078c0.147,-1.786 0.147,-3.582 -0,-5.369c3.629,-2.084 7.513,-3.443 11.65,-4.077c-1.09,-7.115 -3.884,-13.861 -8.144,-19.662c-3.374,2.477 -7.081,4.262 -11.121,5.354c-1.159,-1.367 -2.429,-2.637 -3.797,-3.796c1.093,-4.041 2.878,-7.748 5.355,-11.121c-5.802,-4.26 -12.548,-7.055 -19.662,-8.145c-0.634,4.138 -1.993,8.021 -4.078,11.651c-1.786,-0.148 -3.582,-0.148 -5.369,-0c-2.084,-3.63 -3.443,-7.513 -4.077,-11.651Zm0.269,28.457c8.651,-3.583 18.584,0.531 22.167,9.182c3.583,8.651 -0.531,18.584 -9.182,22.167c-8.651,3.583 -18.583,-0.531 -22.167,-9.182c-3.583,-8.651 0.531,-18.583 9.182,-22.167Z" style="fill:none;stroke:#40a0e1;stroke-width:4.17px;"/><g id="plus"></g><g id="scaleToMinimal"></g><g id="album"></g><g id="pause"></g><g id="pen"></g><g id="flat"></g></svg>