<?xml version="1.0" encoding="UTF-8" standalone="no"?><!DOCTYPE svg PUBLIC "-//W3C//DTD SVG 1.1//EN" "http://www.w3.org/Graphics/SVG/1.1/DTD/svg11.dtd"><svg width="100%" height="100%" viewBox="0 0 100 100" version="1.1" xmlns="http://www.w3.org/2000/svg" xmlns:xlink="http://www.w3.org/1999/xlink" xml:space="preserve" xmlns:serif="http://www.serif.com/" style="fill-rule:evenodd;clip-rule:evenodd;stroke-miterlimit:1.5;"><g id="selectAll"><g><rect x="18.75" y="18.75" width="4.167" height="4.167" style="fill:#40a0e1;"/><rect x="43.75" y="18.75" width="4.167" height="4.167" style="fill:#40a0e1;"/><rect x="68.75" y="18.75" width="4.167" height="4.167" style="fill:#40a0e1;"/><rect x="27.083" y="18.75" width="4.167" height="4.167" style="fill:#40a0e1;"/><rect x="52.083" y="18.75" width="4.167" height="4.167" style="fill:#40a0e1;"/><rect x="35.417" y="18.75" width="4.167" height="4.167" style="fill:#40a0e1;"/><rect x="60.417" y="18.75" width="4.167" height="4.167" style="fill:#40a0e1;"/></g><g><path d="M22.917,31.25l-0,-4.167l-4.167,0l0,4.167l4.167,-0Z" style="fill:#40a0e1;"/><path d="M22.917,56.25l-0,-4.167l-4.167,0l0,4.167l4.167,-0Z" style="fill:#40a0e1;"/><path d="M22.917,81.25l-0,-4.167l-4.167,0l0,4.167l4.167,-0Z" style="fill:#40a0e1;"/><path d="M22.917,39.583l-0,-4.166l-4.167,-0l0,4.166l4.167,0Z" style="fill:#40a0e1;"/><path d="M22.917,64.583l-0,-4.166l-4.167,-0l0,4.166l4.167,0Z" style="fill:#40a0e1;"/><path d="M22.917,47.917l-0,-4.167l-4.167,-0l0,4.167l4.167,-0Z" style="fill:#40a0e1;"/><path d="M22.917,72.917l-0,-4.167l-4.167,-0l0,4.167l4.167,-0Z" style="fill:#40a0e1;"/></g><g><rect x="77.083" y="77.083" width="4.167" height="4.167" style="fill:#40a0e1;"/><rect x="52.083" y="77.083" width="4.167" height="4.167" style="fill:#40a0e1;"/><rect x="27.083" y="77.083" width="4.167" height="4.167" style="fill:#40a0e1;"/><rect x="68.75" y="77.083" width="4.167" height="4.167" style="fill:#40a0e1;"/><rect x="43.75" y="77.083" width="4.167" height="4.167" style="fill:#40a0e1;"/><rect x="60.417" y="77.083" width="4.167" height="4.167" style="fill:#40a0e1;"/><rect x="35.417" y="77.083" width="4.167" height="4.167" style="fill:#40a0e1;"/></g><g><path d="M77.083,68.75l0,4.167l4.167,-0l0,-4.167l-4.167,0Z" style="fill:#40a0e1;"/><path d="M77.083,43.75l0,4.167l4.167,-0l0,-4.167l-4.167,0Z" style="fill:#40a0e1;"/><path d="M77.083,18.75l0,4.167l4.167,-0l0,-4.167l-4.167,0Z" style="fill:#40a0e1;"/><path d="M77.083,60.417l0,4.166l4.167,0l0,-4.166l-4.167,-0Z" style="fill:#40a0e1;"/><path d="M77.083,35.417l0,4.166l4.167,0l0,-4.166l-4.167,-0Z" style="fill:#40a0e1;"/><path d="M77.083,52.083l0,4.167l4.167,0l0,-4.167l-4.167,0Z" style="fill:#40a0e1;"/><path d="M77.083,27.083l0,4.167l4.167,0l0,-4.167l-4.167,0Z" style="fill:#40a0e1;"/></g><path d="M68.75,31.25l-37.5,-0l-0,37.5l37.5,-0l-0,-37.5Zm-4.167,4.167l-29.166,-0l-0,29.166l29.166,0l0,-29.166Z" style="fill:#40a0e1;"/><path d="M35.417,50l29.166,0" style="fill:none;stroke:#40a0e1;stroke-width:4.17px;"/><path d="M50,35.417l-0,29.166" style="fill:none;stroke:#40a0e1;stroke-width:4.17px;"/></g><g id="garbageCan"></g><g id="attribute"></g><g id="playAdd"></g><g id="checked"></g><g id="check"></g><g id="fullScreen"></g><g id="loop"></g><g id="loopSingle"></g><g id="more"></g><g id="random"></g><g id="play"></g><g id="playNext"></g><g id="playPrevious"></g><g id="search"></g><g id="playing"></g><g id="clock"></g><g id="back"></g><g id="close"></g><g id="menu"></g><g id="playList"></g><g id="musicNote"></g><g id="plus"></g><g id="scaleToMinimal"></g><g id="album"></g><g id="pause"></g><g id="pen"></g><g id="flat"></g></svg>