<?xml version="1.0" encoding="UTF-8" standalone="no"?><!DOCTYPE svg PUBLIC "-//W3C//DTD SVG 1.1//EN" "http://www.w3.org/Graphics/SVG/1.1/DTD/svg11.dtd"><svg width="100%" height="100%" viewBox="0 0 100 100" version="1.1" xmlns="http://www.w3.org/2000/svg" xmlns:xlink="http://www.w3.org/1999/xlink" xml:space="preserve" xmlns:serif="http://www.serif.com/" style="fill-rule:evenodd;clip-rule:evenodd;stroke-miterlimit:1.5;"><g id="selectAll"><g><rect x="6.25" y="6.25" width="5.833" height="5.833" style="fill:#40a0e1;"/><rect x="41.25" y="6.25" width="5.833" height="5.833" style="fill:#40a0e1;"/><rect x="76.25" y="6.25" width="5.833" height="5.833" style="fill:#40a0e1;"/><rect x="17.917" y="6.25" width="5.833" height="5.833" style="fill:#40a0e1;"/><rect x="52.917" y="6.25" width="5.833" height="5.833" style="fill:#40a0e1;"/><rect x="29.583" y="6.25" width="5.833" height="5.833" style="fill:#40a0e1;"/><rect x="64.583" y="6.25" width="5.833" height="5.833" style="fill:#40a0e1;"/></g><g><path d="M12.083,23.75l0,-5.833l-5.833,-0l-0,5.833l5.833,-0Z" style="fill:#40a0e1;"/><path d="M12.083,58.75l0,-5.833l-5.833,-0l-0,5.833l5.833,0Z" style="fill:#40a0e1;"/><path d="M12.083,93.75l0,-5.833l-5.833,-0l-0,5.833l5.833,0Z" style="fill:#40a0e1;"/><path d="M12.083,35.417l0,-5.834l-5.833,0l-0,5.834l5.833,-0Z" style="fill:#40a0e1;"/><path d="M12.083,70.417l0,-5.834l-5.833,0l-0,5.834l5.833,-0Z" style="fill:#40a0e1;"/><path d="M12.083,47.083l0,-5.833l-5.833,-0l-0,5.833l5.833,0Z" style="fill:#40a0e1;"/><path d="M12.083,82.083l0,-5.833l-5.833,0l-0,5.833l5.833,0Z" style="fill:#40a0e1;"/></g><g><rect x="87.917" y="87.917" width="5.833" height="5.833" style="fill:#40a0e1;"/><rect x="52.917" y="87.917" width="5.833" height="5.833" style="fill:#40a0e1;"/><rect x="17.917" y="87.917" width="5.833" height="5.833" style="fill:#40a0e1;"/><rect x="76.25" y="87.917" width="5.833" height="5.833" style="fill:#40a0e1;"/><rect x="41.25" y="87.917" width="5.833" height="5.833" style="fill:#40a0e1;"/><rect x="64.583" y="87.917" width="5.833" height="5.833" style="fill:#40a0e1;"/><rect x="29.583" y="87.917" width="5.833" height="5.833" style="fill:#40a0e1;"/></g><g><path d="M87.917,76.25l-0,5.833l5.833,0l0,-5.833l-5.833,0Z" style="fill:#40a0e1;"/><path d="M87.917,41.25l-0,5.833l5.833,0l0,-5.833l-5.833,0Z" style="fill:#40a0e1;"/><path d="M87.917,6.25l-0,5.833l5.833,0l0,-5.833l-5.833,-0Z" style="fill:#40a0e1;"/><path d="M87.917,64.583l-0,5.834l5.833,-0l0,-5.834l-5.833,0Z" style="fill:#40a0e1;"/><path d="M87.917,29.583l-0,5.834l5.833,-0l0,-5.834l-5.833,0Z" style="fill:#40a0e1;"/><path d="M87.917,52.917l-0,5.833l5.833,0l0,-5.833l-5.833,-0Z" style="fill:#40a0e1;"/><path d="M87.917,17.917l-0,5.833l5.833,0l0,-5.833l-5.833,-0Z" style="fill:#40a0e1;"/></g><path d="M74.583,25.417l-49.166,-0l-0,49.166l49.166,0l0,-49.166Zm-4.166,4.166l-40.834,0l0,40.834l40.834,-0l-0,-40.834Z" style="fill:#40a0e1;"/><path d="M29.583,50l40.834,0" style="fill:none;stroke:#40a0e1;stroke-width:4.17px;"/><path d="M50,29.583l-0,40.834" style="fill:none;stroke:#40a0e1;stroke-width:4.17px;"/></g><g id="garbageCan"></g><g id="attribute"></g><g id="playAdd"></g><g id="checked"></g><g id="check"></g><g id="fullScreen"></g><g id="loop"></g><g id="loopSingle"></g><g id="more"></g><g id="random"></g><g id="play"></g><g id="playNext"></g><g id="playPrevious"></g><g id="search"></g><g id="playing"></g><g id="clock"></g><g id="back"></g><g id="close"></g><g id="menu"></g><g id="playList"></g><g id="musicNote"></g><g id="plus"></g><g id="scaleToMinimal"></g><g id="album"></g><g id="pause"></g><g id="pen"></g><g id="flat"></g></svg>