<?xml version="1.0" encoding="UTF-8" standalone="no"?><!DOCTYPE svg PUBLIC "-//W3C//DTD SVG 1.1//EN" "http://www.w3.org/Graphics/SVG/1.1/DTD/svg11.dtd"><svg width="100%" height="100%" viewBox="0 0 100 100" version="1.1" xmlns="http://www.w3.org/2000/svg" xmlns:xlink="http://www.w3.org/1999/xlink" xml:space="preserve" xmlns:serif="http://www.serif.com/" style="fill-rule:evenodd;clip-rule:evenodd;stroke-linecap:round;stroke-linejoin:round;stroke-miterlimit:1.5;"><g id="selectAll"></g><g id="garbageCan"></g><g id="attribute"></g><g id="playAdd"></g><g id="checked"></g><g id="check"></g><g id="fullScreen"></g><g id="loop"></g><g id="loopSingle"></g><g id="more"></g><g id="random"></g><g id="play"></g><g id="playNext"></g><g id="playPrevious"></g><g id="search"></g><g id="playing"></g><g id="clock"></g><g id="back"></g><g id="close"></g><g id="menu"></g><g id="playList"></g><g id="musicNote"></g><path id="settings" d="M44.979,17.234c-5.282,0.809 -10.29,2.884 -14.598,6.047c1.839,2.505 3.165,5.257 3.976,8.257c-1.016,0.86 -1.959,1.803 -2.819,2.819c-3,-0.811 -5.752,-2.137 -8.257,-3.976c-3.163,4.308 -5.238,9.316 -6.047,14.598c3.072,0.471 5.955,1.48 8.65,3.028c-0.11,1.326 -0.11,2.66 -0,3.986c-2.695,1.548 -5.578,2.557 -8.65,3.028c0.809,5.282 2.884,10.29 6.047,14.598c2.505,-1.839 5.257,-3.165 8.257,-3.976c0.86,1.016 1.803,1.959 2.819,2.819c-0.811,3 -2.137,5.752 -3.976,8.257c4.308,3.163 9.316,5.238 14.598,6.047c0.471,-3.072 1.48,-5.955 3.028,-8.65c1.326,0.11 2.66,0.11 3.986,0c1.548,2.695 2.557,5.578 3.028,8.65c5.282,-0.809 10.29,-2.884 14.598,-6.047c-1.839,-2.505 -3.165,-5.257 -3.976,-8.257c1.016,-0.86 1.959,-1.803 2.819,-2.819c3,0.811 5.752,2.137 8.257,3.976c3.163,-4.308 5.238,-9.316 6.047,-14.598c-3.072,-0.471 -5.955,-1.48 -8.65,-3.028c0.11,-1.326 0.11,-2.66 0,-3.986c2.695,-1.548 5.578,-2.557 8.65,-3.028c-0.809,-5.282 -2.884,-10.29 -6.047,-14.598c-2.505,1.839 -5.257,3.165 -8.257,3.976c-0.86,-1.016 -1.803,-1.959 -2.819,-2.819c0.811,-3 2.137,-5.752 3.976,-8.257c-4.308,-3.163 -9.316,-5.238 -14.598,-6.047c-0.471,3.072 -1.48,5.955 -3.028,8.65c-1.326,-0.11 -2.66,-0.11 -3.986,-0c-1.548,-2.695 -2.557,-5.578 -3.028,-8.65Zm0.201,21.128c6.423,-2.66 13.797,0.395 16.458,6.818c2.66,6.423 -0.395,13.797 -6.818,16.458c-6.423,2.66 -13.797,-0.395 -16.458,-6.818c-2.66,-6.423 0.395,-13.797 6.818,-16.458Z" style="fill:none;stroke:#40a0e1;stroke-width:4.17px;"/><g id="plus"></g><g id="scaleToMinimal"></g><g id="album"></g><g id="pause"></g><g id="pen"></g><g id="flat"></g></svg>